<svg width="461" height="464" viewBox="0 0 461 464" fill="none" xmlns="http://www.w3.org/2000/svg">
<path d="M271.253 0.563508L242.356 207.17C241.848 210.8 246.322 212.92 248.81 210.228L390.404 57.0216L254.395 215.207C252.005 217.987 254.623 222.188 258.171 221.269L460.118 168.935L260.178 228.477C256.665 229.524 256.595 234.474 260.077 235.618L458.259 300.773L257.868 242.767C254.347 241.748 251.612 245.875 253.922 248.72L385.418 410.677L248.199 253.54C245.788 250.779 241.256 252.772 241.662 256.415L264.722 463.754L234.241 257.375C233.705 253.749 228.816 252.976 227.187 256.259L134.491 443.152L220.425 253.055C221.935 249.715 218.24 246.421 215.094 248.303L36.072 355.412L211.138 241.952C214.214 239.958 212.886 235.189 209.223 235.072L0.712451 228.391L209.328 227.59C212.994 227.576 214.455 222.846 211.437 220.767L39.6389 102.417L215.57 214.53C218.662 216.5 222.448 213.311 221.033 209.929L140.492 17.4862L227.883 206.917C229.418 210.246 234.328 209.61 234.965 206.001L271.253 0.563508Z" fill="#00FFE0"/>
</svg>
