<svg width="134" height="70" viewBox="0 0 134 70" fill="none" xmlns="http://www.w3.org/2000/svg">
<path fill-rule="evenodd" clip-rule="evenodd" d="M12.1578 0H4.70524L0.125 32.6304H7.5776L8.66444 24.8613L9.51838 23.3074L10.8769 32.6304H18.6789L15.4184 14.9556L23.4144 0H15.3019L8.00457 15.8879H7.073L11.2651 6.21532L12.1578 0ZM16.0391 36.9037H20.1535L18.795 63.008L18.1351 67.8637H18.6785L23.0259 36.9425H25.1995L20.6193 69.5729H16.5048L17.8634 43.4686L18.5233 38.6129H17.9798L13.6325 69.5341H11.4588L16.0391 36.9037ZM1.17306 64.5619L5.09343 36.9426H7.46119L3.50199 64.8338C3.23028 66.7373 3.69607 67.5919 4.82172 67.5919C5.94738 67.5919 6.60724 66.7373 6.87895 64.8338L10.7993 36.9426H13.1671L9.20789 64.9504C8.78092 68.1357 7.5 69.8449 4.70528 69.8449C1.67766 69.8449 0.746084 68.058 1.21187 64.6008L1.17306 64.5619ZM32.1476 36.9037H28.3048L23.7246 69.5341H27.9943C30.168 69.5341 31.2548 68.6406 31.9923 66.5818C32.885 64.1734 35.7186 43.7017 35.7186 40.6329C35.7186 39.8948 35.6798 39.351 35.4857 38.8071C35.0975 37.5641 33.9719 36.9037 32.1476 36.9037ZM29.7022 65.8826C29.3916 66.8149 28.887 67.2422 28.0331 67.2422H27.9943H26.364L30.3232 39.1956H32.1087C32.6522 39.1956 32.9239 39.351 33.1179 39.7394C33.2344 40.0113 33.2732 40.2833 33.2732 40.7106C33.2732 43.5075 30.2068 64.4841 29.7022 65.8826ZM39.562 61.1046L41.1534 49.4897H48.606L46.7817 62.7749C46.5876 64.018 46.6264 64.4064 47.0922 64.4064C47.4804 64.4064 47.7133 64.1734 47.8297 63.2799L51.4784 36.9037H58.931L55.3599 62.6972C54.7389 67.1645 51.7113 69.9614 46.8981 69.9614C40.5712 69.9614 38.7857 66.9703 39.6008 61.0657L39.562 61.1046ZM60.9882 36.9426L57.6501 60.6385C56.8349 66.6984 58.7757 70.0003 65.1027 70.0003C70.4592 70.0003 72.9046 66.9704 73.5645 62.2312L77.0967 36.9426H69.6441L65.9178 63.3966C65.8013 64.1735 65.6461 64.4065 65.2579 64.4065C64.8698 64.4065 64.5592 64.29 64.7145 63.3966L68.4408 36.9426H60.9882ZM78.8822 36.9037H85.3644L82.8026 58.3854L81.9098 64.4065H82.8414L83.7342 58.3854L87.0723 36.9037H98.4453L95.8446 58.3854L94.9519 64.4065H95.8835L96.7762 58.3854L100.192 36.9037H106.752L101.356 69.5341H89.3624L91.6525 48.2078L92.5453 42.0702H91.6137L90.721 48.2078L87.1499 69.5341H75.1559L78.8822 36.9037ZM121.541 36.9037H108.654L104.074 69.5341H116.999L117.97 62.5419H112.458L113.312 56.715H118.28L119.289 49.7228H114.282L115.058 43.8959H120.57L121.541 36.9037ZM123.637 36.9037H131.012L127.441 62.5419H133.418L132.448 69.5341H119.056L123.637 36.9037ZM24.8116 0H32.5359C35.7576 0 37.8536 1.32075 39.0957 3.45727C39.6003 4.35072 39.9496 5.36071 39.9496 6.48724C39.9496 8.97336 39.5227 12.7802 38.3582 14.8779C37.5819 16.2375 36.1069 17.0144 34.2438 17.4029V18.2963L37.3102 19.0344L36.6115 32.6304H29.5859L30.1293 20.7825H29.353L27.6839 32.6304H20.2313L24.8116 0ZM30.4398 13.9845C30.9832 13.9845 31.2938 13.8291 31.5655 13.3629C31.8372 12.8579 32.7299 6.52608 32.7299 6.09878C32.7299 5.90455 32.6911 5.78801 32.5747 5.63263C32.3806 5.32187 32.1089 5.12764 31.8372 5.12764H31.5655L30.3234 13.9845H30.4398ZM58.6204 0H45.035L38.087 32.6304H46.0442L47.4027 24.4728H49.3047L48.4119 32.6304H56.3691L58.6204 0ZM50.8961 9.67259L50.0422 17.4806H48.606L49.9257 9.67259L50.6244 5.16648H51.556L50.8961 9.67259ZM61.2593 0H67.7415L65.1797 21.4817L64.287 27.5028H65.2185L66.1113 21.4817L69.4494 0H80.8224L78.2218 21.4817L77.329 27.5028H78.2606L79.1533 21.4817L82.5691 0H89.129L83.7336 32.6304H71.7396L74.0297 11.3041L74.9224 5.16648H73.9909L73.0981 11.3041L69.5271 32.6304H57.533L61.2593 0ZM105.315 0H91.7296L84.7816 32.6304H92.7388L94.0974 24.4728H95.9993L95.1066 32.6304H103.064L105.315 0ZM97.6296 9.67259L96.7756 17.4806H95.3395L96.6592 9.67259L97.3579 5.16648H98.2894L97.6296 9.67259ZM109.391 0H116.766L113.195 25.6382H119.173L118.202 32.6304H104.811L109.391 0ZM131.555 0H124.18L119.6 32.6304H132.991L133.962 25.6382H127.984L131.555 0Z" fill="white"/>
</svg>
